<svg width="165" height="36" viewBox="0 0 165 36" fill="none" xmlns="http://www.w3.org/2000/svg">
<path fill-rule="evenodd" clip-rule="evenodd" d="M0 35.4037C0.544438 35.4528 1.096 35.4779 1.65356 35.4779C9.96432 35.4779 16.9414 29.9075 18.8752 22.3854C20.7346 29.8857 27.4604 35.3908 35.7692 35.3908V31.6486C35.1493 31.6486 34.5392 31.6068 33.9416 31.5258V31.5485C27.2715 30.7332 22.1055 25.0495 22.1055 18.1592C22.1055 11.2689 27.2715 5.5852 33.9416 4.76993V4.79216C34.5392 4.71121 35.1493 4.66939 35.7692 4.66939V0.8403C27.4594 0.8403 20.7331 6.40932 18.8745 13.9301C16.9398 6.40922 9.96341 0.840088 1.65356 0.840088C1.096 0.840088 0.544438 0.86516 0 0.914212V35.4037ZM3.8293 31.5482C10.4994 30.733 15.6653 25.0493 15.6653 18.159C15.6653 11.2687 10.4994 5.58498 3.8293 4.76972V31.5482Z" fill="#F7CA31"/>
<path d="M103.654 2.14624C104.149 2.14624 104.574 2.2482 104.928 2.45212C105.282 2.65604 105.555 2.9452 105.745 3.31961C105.936 3.69402 106.031 4.14197 106.031 4.66347V5.29528H102.326C102.339 5.8335 102.483 6.24802 102.757 6.53886C103.034 6.82969 103.422 6.97511 103.92 6.97511C104.275 6.97511 104.592 6.94168 104.873 6.87482C105.157 6.80462 105.45 6.70266 105.75 6.56894V7.52669C105.473 7.65707 105.191 7.75234 104.903 7.81251C104.616 7.87269 104.271 7.90277 103.87 7.90277C103.325 7.90277 102.845 7.79747 102.431 7.58687C102.02 7.37292 101.697 7.05534 101.463 6.63413C101.233 6.21292 101.117 5.68975 101.117 5.06462C101.117 4.44284 101.222 3.91465 101.433 3.48007C101.644 3.04549 101.94 2.71454 102.321 2.48722C102.702 2.2599 103.146 2.14624 103.654 2.14624ZM103.654 3.03379C103.283 3.03379 102.983 3.15413 102.752 3.39483C102.525 3.63552 102.391 3.9882 102.351 4.45286H104.878C104.875 4.1754 104.828 3.9297 104.738 3.71575C104.651 3.5018 104.517 3.33465 104.336 3.21431C104.159 3.09396 103.932 3.03379 103.654 3.03379Z" fill="#202020"/>
<path d="M97.9956 2.14624C98.6542 2.14624 99.1824 2.38693 99.5802 2.86831C99.9813 3.3497 100.182 4.06508 100.182 5.01448C100.182 5.64295 100.088 6.1728 99.9011 6.60404C99.7173 7.03194 99.4582 7.3562 99.1239 7.57684C98.7929 7.79413 98.4068 7.90277 97.9656 7.90277C97.6847 7.90277 97.4407 7.866 97.2335 7.79246C97.0262 7.71891 96.849 7.62364 96.7019 7.50664C96.5548 7.38629 96.4311 7.25592 96.3309 7.11551H96.2607C96.2774 7.24923 96.2924 7.39799 96.3058 7.56179C96.3225 7.72225 96.3309 7.86934 96.3309 8.00306V10.2646H95.1475V2.25154H96.1102L96.2757 3.01875H96.3309C96.4345 2.86163 96.5599 2.71621 96.7069 2.58249C96.8574 2.44878 97.0379 2.34347 97.2485 2.26659C97.4624 2.18636 97.7115 2.14624 97.9956 2.14624ZM97.6797 3.10901C97.3555 3.10901 97.0947 3.17419 96.8975 3.30457C96.7036 3.4316 96.5615 3.62382 96.4713 3.88122C96.3843 4.13863 96.3375 4.46122 96.3309 4.849V5.01448C96.3309 5.42566 96.3726 5.775 96.4562 6.06249C96.5431 6.34664 96.6852 6.56393 96.8824 6.71436C97.083 6.86145 97.3538 6.93499 97.6948 6.93499C97.9823 6.93499 98.2196 6.85643 98.4068 6.69932C98.5974 6.5422 98.7394 6.31822 98.833 6.02739C98.9266 5.73655 98.9734 5.3939 98.9734 4.99943C98.9734 4.40105 98.8665 3.93638 98.6525 3.60543C98.4419 3.27448 98.1177 3.10901 97.6797 3.10901Z" fill="#202020"/>
<path d="M91.4697 2.14624C92.1717 2.14624 92.7016 2.30169 93.0593 2.61258C93.4203 2.92347 93.6008 3.4082 93.6008 4.06676V7.80248H92.7634L92.5378 7.01522H92.4977C92.3406 7.2158 92.1784 7.38128 92.0113 7.51165C91.8441 7.64202 91.6502 7.73897 91.4296 7.80248C91.2123 7.86934 90.9465 7.90277 90.6323 7.90277C90.3014 7.90277 90.0055 7.8426 89.7448 7.72225C89.484 7.59857 89.2784 7.41136 89.128 7.16064C88.9776 6.90992 88.9023 6.59234 88.9023 6.20791C88.9023 5.63626 89.1146 5.2067 89.5392 4.9192C89.9671 4.63171 90.6123 4.47292 91.4747 4.44284L92.4375 4.40774V4.1169C92.4375 3.73246 92.3472 3.45834 92.1667 3.29454C91.9895 3.13073 91.7388 3.04883 91.4146 3.04883C91.1371 3.04883 90.868 3.08895 90.6072 3.16918C90.3465 3.24941 90.0924 3.34803 89.8451 3.46503L89.464 2.63264C89.7347 2.48889 90.0423 2.37189 90.3866 2.28163C90.7343 2.19137 91.0953 2.14624 91.4697 2.14624ZM92.4325 5.14987L91.7154 5.17494C91.1271 5.195 90.7142 5.29528 90.4769 5.4758C90.2395 5.65632 90.1208 5.9037 90.1208 6.21793C90.1208 6.49205 90.2027 6.69263 90.3665 6.81966C90.5304 6.94335 90.746 7.0052 91.0134 7.0052C91.4212 7.0052 91.7589 6.88986 92.0263 6.6592C92.2971 6.4252 92.4325 6.08255 92.4325 5.63125V5.14987Z" fill="#202020"/>
<path d="M84.0456 0V1.96063C84.0456 2.16455 84.0389 2.36345 84.0255 2.55734C84.0155 2.75123 84.0038 2.90167 83.9904 3.00864H84.0556C84.1726 2.81475 84.3163 2.65596 84.4868 2.53227C84.6573 2.40524 84.8479 2.30997 85.0585 2.24645C85.2724 2.18294 85.4997 2.15118 85.7404 2.15118C86.165 2.15118 86.526 2.22305 86.8236 2.3668C87.1211 2.5072 87.3484 2.72616 87.5055 3.02368C87.666 3.32121 87.7462 3.70731 87.7462 4.18201V7.80241H86.5678V4.40264C86.5678 3.97141 86.4792 3.64881 86.3021 3.43486C86.1249 3.21757 85.8508 3.10893 85.4797 3.10893C85.122 3.10893 84.8378 3.18414 84.6272 3.33458C84.42 3.48167 84.2712 3.70063 84.181 3.99146C84.0907 4.27896 84.0456 4.62996 84.0456 5.04449V7.80241H82.8672V0H84.0456Z" fill="#202020"/>
<path d="M79.7054 1.3889C79.3544 1.3889 79.0402 1.45242 78.7627 1.57945C78.4886 1.70648 78.2563 1.89034 78.0657 2.13104C77.8752 2.36838 77.7298 2.65755 77.6295 2.99853C77.5292 3.33616 77.4791 3.71726 77.4791 4.14181C77.4791 4.71011 77.5593 5.19985 77.7197 5.61103C77.8802 6.01887 78.1242 6.3331 78.4518 6.55374C78.7795 6.77103 79.194 6.87967 79.6954 6.87967C80.0063 6.87967 80.3088 6.84959 80.603 6.78941C80.8972 6.72924 81.2014 6.64734 81.5156 6.54371V7.56665C81.2181 7.68365 80.9173 7.76889 80.6131 7.82238C80.3088 7.87587 79.9578 7.90261 79.56 7.90261C78.8112 7.90261 78.1894 7.74717 77.6947 7.43627C77.2033 7.12538 76.8355 6.68746 76.5915 6.1225C76.3508 5.55754 76.2305 4.89564 76.2305 4.1368C76.2305 3.58187 76.3074 3.07374 76.4611 2.61242C76.6149 2.15109 76.8389 1.75328 77.1331 1.41899C77.4272 1.08135 77.7899 0.822277 78.2212 0.641759C78.6558 0.457897 79.1522 0.365967 79.7105 0.365967C80.0782 0.365967 80.4392 0.407753 80.7936 0.491327C81.1513 0.571557 81.4822 0.686888 81.7864 0.837321L81.3652 1.83017C81.1112 1.70983 80.8454 1.6062 80.5679 1.51928C80.2905 1.43236 80.003 1.3889 79.7054 1.3889Z" fill="#202020"/>
<path d="M70.2931 2.14624C70.7879 2.14624 71.2125 2.2482 71.5668 2.45212C71.9212 2.65604 72.1936 2.9452 72.3842 3.31961C72.5747 3.69402 72.67 4.14197 72.67 4.66347V5.29528H68.9643C68.9777 5.8335 69.1214 6.24802 69.3956 6.53886C69.673 6.82969 70.0608 6.97511 70.5589 6.97511C70.9133 6.97511 71.2308 6.94168 71.5116 6.87482C71.7958 6.80462 72.0883 6.70266 72.3892 6.56894V7.52669C72.1117 7.65707 71.8292 7.75234 71.5417 7.81251C71.2542 7.87269 70.9099 7.90277 70.5088 7.90277C69.9639 7.90277 69.4842 7.79747 69.0696 7.58687C68.6585 7.37292 68.3359 7.05534 68.1019 6.63413C67.8712 6.21292 67.7559 5.68975 67.7559 5.06462C67.7559 4.44284 67.8612 3.91465 68.0718 3.48007C68.2824 3.04549 68.5782 2.71454 68.9593 2.48722C69.3404 2.2599 69.785 2.14624 70.2931 2.14624ZM70.2931 3.03379C69.9221 3.03379 69.6212 3.15413 69.3906 3.39483C69.1632 3.63552 69.0295 3.9882 68.9894 4.45286H71.5167C71.5133 4.1754 71.4665 3.9297 71.3763 3.71575C71.2893 3.5018 71.1556 3.33465 70.9751 3.21431C70.7979 3.09396 70.5706 3.03379 70.2931 3.03379Z" fill="#202020"/>
<path d="M63.6513 7.9027C62.9894 7.9027 62.4578 7.662 62.0567 7.18062C61.6589 6.6959 61.46 5.98218 61.46 5.03947C61.46 4.08674 61.6622 3.36633 62.0667 2.87827C62.4745 2.3902 63.0111 2.14616 63.6763 2.14616C63.9571 2.14616 64.2028 2.18461 64.4134 2.26149C64.624 2.33504 64.8046 2.43533 64.955 2.56236C65.1088 2.68939 65.2391 2.83147 65.3461 2.98858H65.4013C65.3846 2.88495 65.3645 2.73619 65.3411 2.5423C65.3211 2.34507 65.311 2.16288 65.311 1.99573V0H66.4944V7.80241H65.5718L65.3612 7.04523H65.311C65.2107 7.20569 65.0837 7.35111 64.9299 7.48149C64.7795 7.60852 64.599 7.71048 64.3884 7.78736C64.1811 7.86425 63.9354 7.9027 63.6513 7.9027ZM63.9822 6.94495C64.487 6.94495 64.843 6.79953 65.0503 6.50869C65.2575 6.21786 65.3645 5.7816 65.3712 5.19993V5.04449C65.3712 4.4227 65.2709 3.94633 65.0703 3.61538C64.8698 3.28109 64.5037 3.11394 63.9722 3.11394C63.5476 3.11394 63.2234 3.2861 62.9994 3.63043C62.7787 3.97141 62.6684 4.44777 62.6684 5.05953C62.6684 5.67129 62.7787 6.1393 62.9994 6.46356C63.2234 6.78448 63.551 6.94495 63.9822 6.94495Z" fill="#202020"/>
<path d="M60.1988 2.25135V7.80229H59.0204V2.25135H60.1988ZM59.6171 0.125244C59.7976 0.125244 59.9531 0.173717 60.0835 0.270662C60.2172 0.367607 60.284 0.534754 60.284 0.772102C60.284 1.00611 60.2172 1.17325 60.0835 1.27354C59.9531 1.37049 59.7976 1.41896 59.6171 1.41896C59.4299 1.41896 59.2711 1.37049 59.1407 1.27354C59.0137 1.17325 58.9502 1.00611 58.9502 0.772102C58.9502 0.534754 59.0137 0.367607 59.1407 0.270662C59.2711 0.173717 59.4299 0.125244 59.6171 0.125244Z" fill="#202020"/>
<path d="M54.907 7.80241L52.7959 2.25146H54.0445L55.1878 5.51083C55.2613 5.71809 55.3282 5.94206 55.3883 6.18276C55.4485 6.42345 55.4903 6.62569 55.5137 6.7895H55.5538C55.5772 6.61901 55.6223 6.41509 55.6892 6.17774C55.7561 5.93705 55.8246 5.71474 55.8948 5.51083L57.0381 2.25146H58.2817L56.1706 7.80241H54.907Z" fill="#202020"/>
<path d="M49.96 2.14624C50.662 2.14624 51.1918 2.30169 51.5495 2.61258C51.9106 2.92347 52.0911 3.4082 52.0911 4.06676V7.80248H51.2537L51.028 7.01522H50.9879C50.8308 7.2158 50.6687 7.38128 50.5015 7.51165C50.3344 7.64202 50.1405 7.73897 49.9198 7.80248C49.7025 7.86934 49.4368 7.90277 49.1225 7.90277C48.7916 7.90277 48.4957 7.8426 48.235 7.72225C47.9742 7.59857 47.7687 7.41136 47.6182 7.16064C47.4678 6.90992 47.3926 6.59234 47.3926 6.20791C47.3926 5.63626 47.6049 5.2067 48.0294 4.9192C48.4573 4.63171 49.1025 4.47292 49.965 4.44284L50.9277 4.40774V4.1169C50.9277 3.73246 50.8375 3.45834 50.657 3.29454C50.4798 3.13073 50.2291 3.04883 49.9048 3.04883C49.6273 3.04883 49.3582 3.08895 49.0975 3.16918C48.8367 3.24941 48.5827 3.34803 48.3353 3.46503L47.9542 2.63264C48.225 2.48889 48.5325 2.37189 48.8768 2.28163C49.2245 2.19137 49.5855 2.14624 49.96 2.14624ZM50.9227 5.14987L50.2057 5.17494C49.6173 5.195 49.2044 5.29528 48.9671 5.4758C48.7298 5.65632 48.6111 5.9037 48.6111 6.21793C48.6111 6.49205 48.693 6.69263 48.8568 6.81966C49.0206 6.94335 49.2362 7.0052 49.5036 7.0052C49.9115 7.0052 50.2491 6.88986 50.5166 6.6592C50.7873 6.4252 50.9227 6.08255 50.9227 5.63125V5.14987Z" fill="#202020"/>
<path d="M46.4267 4.06676C46.4267 4.89247 46.2729 5.58278 45.9654 6.13771C45.6578 6.68929 45.2115 7.10549 44.6265 7.38629C44.0415 7.66376 43.3362 7.80249 42.5105 7.80249H40.4746V0.471436H42.7311C43.4899 0.471436 44.1452 0.608496 44.6967 0.882616C45.2483 1.15339 45.6745 1.55622 45.9754 2.09109C46.2763 2.62261 46.4267 3.28117 46.4267 4.06676ZM45.1731 4.10186C45.1731 3.50013 45.0778 3.00538 44.8873 2.6176C44.7001 2.22982 44.4226 1.94233 44.0549 1.75512C43.6905 1.56457 43.2409 1.4693 42.706 1.4693H41.6781V6.7946H42.5305C43.4164 6.7946 44.0783 6.56895 44.5162 6.11765C44.9541 5.66636 45.1731 4.99443 45.1731 4.10186Z" fill="#202020"/>
<rect x="39.5117" y="31.8225" width="91.033" height="4.17742" fill="#202020"/>
<path d="M130.457 17.7239L161.961 0.666148L164.224 4.84357L132.719 21.9014L130.457 17.7239Z" fill="#202020"/>
<rect x="135.419" y="23.99" width="4.6996" height="11.662" fill="#202020"/>
<rect x="158.742" y="11.4578" width="5.04772" height="24.1942" fill="#202020"/>
<rect x="145.861" y="18.7683" width="2.95901" height="2.95901" fill="#202020"/>
<rect x="150.387" y="18.7683" width="2.95901" height="2.95901" fill="#202020"/>
<rect x="150.387" y="23.2937" width="2.95901" height="2.95901" fill="#202020"/>
<rect x="145.861" y="23.2937" width="2.95901" height="2.95901" fill="#202020"/>
</svg>
